<svg xmlns="http://www.w3.org/2000/svg" xmlns:xlink="http://www.w3.org/1999/xlink" width="252" zoomAndPan="magnify" viewBox="0 0 189 60" height="80" preserveAspectRatio="xMidYMid meet" version="1.2"><defs><clipPath id="c9168d19e0"><path d="M 7.730469 16.226562 L 35.277344 16.226562 L 35.277344 43.773438 L 7.730469 43.773438 Z M 7.730469 16.226562 "/></clipPath><clipPath id="51e26dfe3d"><path d="M 21.503906 16.226562 C 13.898438 16.226562 7.730469 22.394531 7.730469 30 C 7.730469 37.605469 13.898438 43.773438 21.503906 43.773438 C 29.109375 43.773438 35.277344 37.605469 35.277344 30 C 35.277344 22.394531 29.109375 16.226562 21.503906 16.226562 Z M 21.503906 16.226562 "/></clipPath><linearGradient x1="-0.00000659043" gradientTransform="matrix(0.1076,0,0,0.1076,7.73112,16.22719)" y1="-0.00000659043" x2="255.999984" gradientUnits="userSpaceOnUse" y2="255.999984" id="7756cf1ab4"><stop style="stop-color:#533afd;stop-opacity:1;" offset="0"/><stop style="stop-color:#533afd;stop-opacity:1;" offset="0.0078125"/><stop style="stop-color:#543bfd;stop-opacity:1;" offset="0.015625"/><stop style="stop-color:#553bfd;stop-opacity:1;" offset="0.0234375"/><stop style="stop-color:#563cfd;stop-opacity:1;" offset="0.03125"/><stop style="stop-color:#573cfd;stop-opacity:1;" offset="0.0390625"/><stop style="stop-color:#583dfd;stop-opacity:1;" offset="0.046875"/><stop style="stop-color:#583dfd;stop-opacity:1;" offset="0.0546875"/><stop style="stop-color:#593efd;stop-opacity:1;" offset="0.0625"/><stop style="stop-color:#5a3ffd;stop-opacity:1;" offset="0.0703125"/><stop style="stop-color:#5b3ffd;stop-opacity:1;" offset="0.078125"/><stop style="stop-color:#5c40fd;stop-opacity:1;" offset="0.0859375"/><stop style="stop-color:#5d40fd;stop-opacity:1;" offset="0.09375"/><stop style="stop-color:#5d41fd;stop-opacity:1;" offset="0.101563"/><stop style="stop-color:#5e41fd;stop-opacity:1;" offset="0.109375"/><stop style="stop-color:#5f42fd;stop-opacity:1;" offset="0.117188"/><stop style="stop-color:#6042fd;stop-opacity:1;" offset="0.125"/><stop style="stop-color:#6143fd;stop-opacity:1;" offset="0.132812"/><stop style="stop-color:#6243fd;stop-opacity:1;" offset="0.140625"/><stop style="stop-color:#6244fd;stop-opacity:1;" offset="0.148438"/><stop style="stop-color:#6345fd;stop-opacity:1;" offset="0.15625"/><stop style="stop-color:#6445fd;stop-opacity:1;" offset="0.164062"/><stop style="stop-color:#6546fd;stop-opacity:1;" offset="0.171875"/><stop style="stop-color:#6646fd;stop-opacity:1;" offset="0.179688"/><stop style="stop-color:#6747fd;stop-opacity:1;" offset="0.1875"/><stop style="stop-color:#6847fd;stop-opacity:1;" offset="0.195313"/><stop style="stop-color:#6848fd;stop-opacity:1;" offset="0.203125"/><stop style="stop-color:#6948fd;stop-opacity:1;" offset="0.210938"/><stop style="stop-color:#6a49fd;stop-opacity:1;" offset="0.21875"/><stop style="stop-color:#6b49fd;stop-opacity:1;" offset="0.226563"/><stop style="stop-color:#6c4afd;stop-opacity:1;" offset="0.234375"/><stop style="stop-color:#6d4bfd;stop-opacity:1;" offset="0.242188"/><stop style="stop-color:#6d4bfd;stop-opacity:1;" offset="0.25"/><stop style="stop-color:#6e4cfd;stop-opacity:1;" offset="0.257812"/><stop style="stop-color:#6f4cfd;stop-opacity:1;" offset="0.265625"/><stop style="stop-color:#704dfe;stop-opacity:1;" offset="0.273437"/><stop style="stop-color:#714dfe;stop-opacity:1;" offset="0.28125"/><stop style="stop-color:#724efe;stop-opacity:1;" offset="0.289062"/><stop style="stop-color:#734efe;stop-opacity:1;" offset="0.296875"/><stop style="stop-color:#734ffe;stop-opacity:1;" offset="0.304687"/><stop style="stop-color:#7450fe;stop-opacity:1;" offset="0.3125"/><stop style="stop-color:#7550fe;stop-opacity:1;" offset="0.320312"/><stop style="stop-color:#7651fe;stop-opacity:1;" offset="0.328125"/><stop style="stop-color:#7751fe;stop-opacity:1;" offset="0.335937"/><stop style="stop-color:#7852fe;stop-opacity:1;" offset="0.34375"/><stop style="stop-color:#7852fe;stop-opacity:1;" offset="0.351562"/><stop style="stop-color:#7953fe;stop-opacity:1;" offset="0.359375"/><stop style="stop-color:#7a53fe;stop-opacity:1;" offset="0.367187"/><stop style="stop-color:#7b54fe;stop-opacity:1;" offset="0.375"/><stop style="stop-color:#7c54fe;stop-opacity:1;" offset="0.382812"/><stop style="stop-color:#7d55fe;stop-opacity:1;" offset="0.390625"/><stop style="stop-color:#7e56fe;stop-opacity:1;" offset="0.398438"/><stop style="stop-color:#7e56fe;stop-opacity:1;" offset="0.40625"/><stop style="stop-color:#7f57fe;stop-opacity:1;" offset="0.414062"/><stop style="stop-color:#8057fe;stop-opacity:1;" offset="0.421875"/><stop style="stop-color:#8158fe;stop-opacity:1;" offset="0.429688"/><stop style="stop-color:#8258fe;stop-opacity:1;" offset="0.4375"/><stop style="stop-color:#8359fe;stop-opacity:1;" offset="0.445312"/><stop style="stop-color:#8359fe;stop-opacity:1;" offset="0.453125"/><stop style="stop-color:#845afe;stop-opacity:1;" offset="0.460938"/><stop style="stop-color:#855afe;stop-opacity:1;" offset="0.46875"/><stop style="stop-color:#865bfe;stop-opacity:1;" offset="0.476562"/><stop style="stop-color:#875cfe;stop-opacity:1;" offset="0.484375"/><stop style="stop-color:#885cfe;stop-opacity:1;" offset="0.492188"/><stop style="stop-color:#895dfe;stop-opacity:1;" offset="0.5"/><stop style="stop-color:#895dfe;stop-opacity:1;" offset="0.507812"/><stop style="stop-color:#8a5efe;stop-opacity:1;" offset="0.515625"/><stop style="stop-color:#8b5efe;stop-opacity:1;" offset="0.523438"/><stop style="stop-color:#8c5ffe;stop-opacity:1;" offset="0.53125"/><stop style="stop-color:#8d5ffe;stop-opacity:1;" offset="0.539062"/><stop style="stop-color:#8e60fe;stop-opacity:1;" offset="0.546875"/><stop style="stop-color:#8e61fe;stop-opacity:1;" offset="0.554688"/><stop style="stop-color:#8f61fe;stop-opacity:1;" offset="0.5625"/><stop style="stop-color:#9062fe;stop-opacity:1;" offset="0.570312"/><stop style="stop-color:#9162fe;stop-opacity:1;" offset="0.578125"/><stop style="stop-color:#9263fe;stop-opacity:1;" offset="0.585938"/><stop style="stop-color:#9363fe;stop-opacity:1;" offset="0.59375"/><stop style="stop-color:#9364fe;stop-opacity:1;" offset="0.601562"/><stop style="stop-color:#9464fe;stop-opacity:1;" offset="0.609375"/><stop style="stop-color:#9565fe;stop-opacity:1;" offset="0.617188"/><stop style="stop-color:#9665fe;stop-opacity:1;" offset="0.625"/><stop style="stop-color:#9766fe;stop-opacity:1;" offset="0.632812"/><stop style="stop-color:#9867fe;stop-opacity:1;" offset="0.640625"/><stop style="stop-color:#9967fe;stop-opacity:1;" offset="0.648438"/><stop style="stop-color:#9968fe;stop-opacity:1;" offset="0.65625"/><stop style="stop-color:#9a68fe;stop-opacity:1;" offset="0.664062"/><stop style="stop-color:#9b69fe;stop-opacity:1;" offset="0.671875"/><stop style="stop-color:#9c69fe;stop-opacity:1;" offset="0.679688"/><stop style="stop-color:#9d6afe;stop-opacity:1;" offset="0.6875"/><stop style="stop-color:#9e6afe;stop-opacity:1;" offset="0.695312"/><stop style="stop-color:#9e6bfe;stop-opacity:1;" offset="0.703125"/><stop style="stop-color:#9f6bfe;stop-opacity:1;" offset="0.710938"/><stop style="stop-color:#a06cfe;stop-opacity:1;" offset="0.71875"/><stop style="stop-color:#a16dfe;stop-opacity:1;" offset="0.726562"/><stop style="stop-color:#a26dfe;stop-opacity:1;" offset="0.734375"/><stop style="stop-color:#a36efe;stop-opacity:1;" offset="0.742188"/><stop style="stop-color:#a46efe;stop-opacity:1;" offset="0.75"/><stop style="stop-color:#a46ffe;stop-opacity:1;" offset="0.757813"/><stop style="stop-color:#a56fff;stop-opacity:1;" offset="0.765625"/><stop style="stop-color:#a670ff;stop-opacity:1;" offset="0.773438"/><stop style="stop-color:#a770ff;stop-opacity:1;" offset="0.78125"/><stop style="stop-color:#a871ff;stop-opacity:1;" offset="0.789063"/><stop style="stop-color:#a971ff;stop-opacity:1;" offset="0.796875"/><stop style="stop-color:#a972ff;stop-opacity:1;" offset="0.804688"/><stop style="stop-color:#aa73ff;stop-opacity:1;" offset="0.8125"/><stop style="stop-color:#ab73ff;stop-opacity:1;" offset="0.820313"/><stop style="stop-color:#ac74ff;stop-opacity:1;" offset="0.828125"/><stop style="stop-color:#ad74ff;stop-opacity:1;" offset="0.835938"/><stop style="stop-color:#ae75ff;stop-opacity:1;" offset="0.84375"/><stop style="stop-color:#af75ff;stop-opacity:1;" offset="0.851563"/><stop style="stop-color:#af76ff;stop-opacity:1;" offset="0.859375"/><stop style="stop-color:#b076ff;stop-opacity:1;" offset="0.867188"/><stop style="stop-color:#b177ff;stop-opacity:1;" offset="0.875"/><stop style="stop-color:#b278ff;stop-opacity:1;" offset="0.882813"/><stop style="stop-color:#b378ff;stop-opacity:1;" offset="0.890625"/><stop style="stop-color:#b479ff;stop-opacity:1;" offset="0.898438"/><stop style="stop-color:#b479ff;stop-opacity:1;" offset="0.90625"/><stop style="stop-color:#b57aff;stop-opacity:1;" offset="0.914063"/><stop style="stop-color:#b67aff;stop-opacity:1;" offset="0.921875"/><stop style="stop-color:#b77bff;stop-opacity:1;" offset="0.929688"/><stop style="stop-color:#b87bff;stop-opacity:1;" offset="0.9375"/><stop style="stop-color:#b97cff;stop-opacity:1;" offset="0.945313"/><stop style="stop-color:#b97cff;stop-opacity:1;" offset="0.953125"/><stop style="stop-color:#ba7dff;stop-opacity:1;" offset="0.960938"/><stop style="stop-color:#bb7eff;stop-opacity:1;" offset="0.96875"/><stop style="stop-color:#bc7eff;stop-opacity:1;" offset="0.976563"/><stop style="stop-color:#bd7fff;stop-opacity:1;" offset="0.984375"/><stop style="stop-color:#be7fff;stop-opacity:1;" offset="0.992188"/><stop style="stop-color:#bf80ff;stop-opacity:1;" offset="1"/></linearGradient><clipPath id="a7e234a386"><path d="M 11.1875 19.773438 L 22 19.773438 L 22 31 L 11.1875 31 Z M 11.1875 19.773438 "/></clipPath><clipPath id="ab7d629cbc"><path d="M 13 19.773438 L 28.84375 19.773438 L 28.84375 39 L 13 39 Z M 13 19.773438 "/></clipPath><clipPath id="1e7f992979"><path d="M 12 19.773438 L 26 19.773438 L 26 34 L 12 34 Z M 12 19.773438 "/></clipPath></defs><g id="6bc29aae44"><rect x="0" width="189" y="0" height="60" style="fill:#ffffff;fill-opacity:1;stroke:none;"/><rect x="0" width="189" y="0" height="60" style="fill:#ffffff;fill-opacity:1;stroke:none;"/><g clip-rule="nonzero" clip-path="url(#c9168d19e0)"><g clip-rule="nonzero" clip-path="url(#51e26dfe3d)"><path style=" stroke:none;fill-rule:nonzero;fill:url(#7756cf1ab4);" d="M 7.730469 16.226562 L 7.730469 43.773438 L 35.277344 43.773438 L 35.277344 16.226562 Z M 7.730469 16.226562 "/></g></g><g clip-rule="nonzero" clip-path="url(#a7e234a386)"><path style=" stroke:none;fill-rule:nonzero;fill:#ffffff;fill-opacity:1;" d="M 11.753906 30.144531 C 11.484375 28.746094 12.726562 27.4375 12.738281 27.425781 L 12.742188 27.425781 L 21.433594 19.773438 L 19.472656 19.773438 L 12.347656 26.152344 C 11.558594 26.859375 11.191406 27.898438 11.363281 28.929688 C 11.457031 29.507812 11.664062 29.964844 11.753906 30.144531 "/></g><path style=" stroke:none;fill-rule:nonzero;fill:#ffffff;fill-opacity:1;" d="M 18.507812 31.558594 L 25.351562 39.96875 L 27.203125 39.96875 L 19.609375 30.460938 L 18.507812 31.558594 "/><path style=" stroke:none;fill-rule:nonzero;fill:#ffffff;fill-opacity:1;" d="M 16.375 33.597656 L 21.484375 39.96875 L 23.910156 39.96875 L 17.710938 32.296875 L 16.375 33.597656 "/><g clip-rule="nonzero" clip-path="url(#ab7d629cbc)"><path style=" stroke:none;fill-rule:nonzero;fill:#ffffff;fill-opacity:1;" d="M 17.183594 38.125 C 17.167969 38.109375 17.152344 38.09375 17.136719 38.078125 C 17.125 38.066406 17.117188 38.058594 17.105469 38.050781 C 17.097656 38.039062 17.085938 38.027344 17.074219 38.015625 C 17.066406 38.003906 17.054688 37.996094 17.046875 37.988281 C 16.777344 37.707031 16.359375 37.238281 15.988281 36.660156 C 15.71875 36.242188 15.425781 35.71875 15.25 35.152344 C 15.09375 34.398438 15.332031 33.601562 15.882812 33.035156 L 28.839844 19.773438 L 26.390625 19.773438 L 14.695312 31.390625 C 14.519531 31.5625 12.019531 34.050781 15.148438 38.25 L 17.308594 38.25 C 17.285156 38.226562 17.246094 38.1875 17.191406 38.132812 L 17.183594 38.125 "/></g><g clip-rule="nonzero" clip-path="url(#1e7f992979)"><path style=" stroke:none;fill-rule:nonzero;fill:#ffffff;fill-opacity:1;" d="M 23.132812 19.773438 L 23.128906 19.773438 L 13.792969 28.476562 L 13.546875 28.707031 C 12.902344 29.308594 12.480469 30.109375 12.371094 30.96875 L 12.371094 30.972656 C 12.363281 31.023438 12.359375 31.074219 12.355469 31.125 L 12.355469 31.128906 C 12.34375 31.28125 12.339844 31.433594 12.347656 31.585938 C 12.378906 32.117188 12.523438 32.695312 12.886719 33.253906 C 12.886719 33.253906 12.726562 31.921875 13.472656 31.164062 L 25.066406 19.777344 L 25.074219 19.773438 L 23.132812 19.773438 "/></g><g style="fill:#0a0a0e;fill-opacity:1;"><g transform="translate(41.877499, 36.281316)"><path style="stroke:none" d="M 1.46875 -16.671875 C 1.394531 -16.703125 1.410156 -16.71875 1.515625 -16.71875 C 1.679688 -16.75 2.53125 -16.765625 4.0625 -16.765625 L 6.796875 -16.765625 L 6.828125 -13.203125 L 6.828125 -9.484375 L 7.125 -9.84375 C 8.457031 -11.632812 9.539062 -13.082031 10.375 -14.1875 C 11.21875 -15.300781 11.8125 -16.101562 12.15625 -16.59375 L 12.28125 -16.765625 L 18.640625 -16.765625 L 18.515625 -16.65625 C 18.210938 -16.320312 17.671875 -15.71875 16.890625 -14.84375 C 16.117188 -13.976562 15.101562 -12.816406 13.84375 -11.359375 C 12.582031 -9.910156 11.46875 -8.617188 10.5 -7.484375 C 9.539062 -6.347656 8.710938 -5.367188 8.015625 -4.546875 L 6.796875 -3.09375 L 6.796875 1.890625 L 1.9375 1.890625 L 1.9375 -7.34375 C 1.9375 -10.351562 1.929688 -12.585938 1.921875 -14.046875 C 1.910156 -15.503906 1.890625 -16.253906 1.859375 -16.296875 C 1.773438 -16.484375 1.644531 -16.609375 1.46875 -16.671875 Z M 10.6875 -6.71875 C 11.8125 -8.007812 12.410156 -8.65625 12.484375 -8.65625 C 12.492188 -8.625 12.53125 -8.550781 12.59375 -8.4375 C 12.664062 -8.332031 12.769531 -8.175781 12.90625 -7.96875 C 12.988281 -7.832031 13.179688 -7.5 13.484375 -6.96875 C 13.785156 -6.4375 14.140625 -5.8125 14.546875 -5.09375 C 14.953125 -4.375 15.382812 -3.609375 15.84375 -2.796875 C 16.3125 -1.992188 16.734375 -1.25 17.109375 -0.5625 C 17.492188 0.125 17.8125 0.695312 18.0625 1.15625 C 18.320312 1.613281 18.453125 1.859375 18.453125 1.890625 C 18.453125 1.921875 17.46875 1.921875 15.5 1.890625 L 12.5625 1.890625 L 11.9375 0.75 C 11.664062 0.269531 11.359375 -0.28125 11.015625 -0.90625 C 10.679688 -1.53125 10.300781 -2.226562 9.875 -3 C 9.289062 -4.0625 9 -4.597656 9 -4.609375 C 9 -4.648438 9.5625 -5.351562 10.6875 -6.71875 Z M 10.6875 -6.71875 "/></g></g><g style="fill:#0a0a0e;fill-opacity:1;"><g transform="translate(61.31038, 36.281316)"><path style="stroke:none" d="M 1.515625 -17.46875 L 1.359375 -17.5625 L 6.875 -17.5625 L 6.875 1.890625 L 1.859375 1.890625 L 1.859375 -7.21875 C 1.878906 -9.53125 1.882812 -11.414062 1.875 -12.875 C 1.863281 -14.332031 1.859375 -15.289062 1.859375 -15.75 C 1.847656 -16.675781 1.820312 -17.175781 1.78125 -17.25 C 1.738281 -17.34375 1.648438 -17.414062 1.515625 -17.46875 Z M 1.515625 -17.46875 "/></g></g><g style="fill:#0a0a0e;fill-opacity:1;"><g transform="translate(70.046497, 36.281316)"><path style="stroke:none" d="M 0.765625 -12.28125 L 0.515625 -12.40625 L 6.359375 -12.40625 L 6.53125 -11.6875 C 6.757812 -10.695312 7 -9.757812 7.25 -8.875 C 7.5 -8 7.726562 -7.164062 7.9375 -6.375 C 8.070312 -5.863281 8.160156 -5.550781 8.203125 -5.4375 C 8.242188 -5.332031 8.253906 -5.28125 8.234375 -5.28125 C 8.253906 -5.300781 8.6875 -6.804688 9.53125 -9.796875 C 9.5625 -9.953125 9.609375 -10.140625 9.671875 -10.359375 C 9.742188 -10.578125 9.820312 -10.847656 9.90625 -11.171875 C 9.988281 -11.484375 10.046875 -11.71875 10.078125 -11.875 C 10.117188 -12.03125 10.148438 -12.125 10.171875 -12.15625 L 10.25 -12.40625 L 12.484375 -12.40625 C 13.972656 -12.40625 14.71875 -12.378906 14.71875 -12.328125 C 14.71875 -12.273438 14.660156 -12.070312 14.546875 -11.71875 C 14.015625 -10.070312 13.457031 -8.304688 12.875 -6.421875 C 12.300781 -4.535156 11.695312 -2.503906 11.0625 -0.328125 C 10.882812 0.285156 10.695312 0.925781 10.5 1.59375 C 10.300781 2.269531 10.082031 2.921875 9.84375 3.546875 C 9.601562 4.242188 9.316406 4.816406 8.984375 5.265625 C 8.648438 5.710938 8.253906 6.0625 7.796875 6.3125 C 7.347656 6.570312 6.832031 6.753906 6.25 6.859375 C 5.675781 6.960938 5.023438 7.015625 4.296875 7.015625 L 2.53125 7.015625 L 2.53125 3.71875 L 2.796875 3.765625 C 2.878906 3.804688 2.972656 3.832031 3.078125 3.84375 C 3.191406 3.863281 3.304688 3.878906 3.421875 3.890625 C 4.285156 3.941406 4.863281 3.671875 5.15625 3.078125 L 5.78125 0.9375 L 5.15625 -0.921875 C 4.0625 -4.191406 3.234375 -6.703125 2.671875 -8.453125 C 2.117188 -10.210938 1.78125 -11.21875 1.65625 -11.46875 C 1.5 -11.84375 1.203125 -12.113281 0.765625 -12.28125 Z M 0.765625 -12.28125 "/></g></g><g style="fill:#0a0a0e;fill-opacity:1;"><g transform="translate(85.185785, 36.281316)"><path style="stroke:none" d="M 10.671875 -12.625 L 10.921875 -12.625 L 10.890625 -10.546875 L 10.890625 -7.984375 L 10.5 -8.015625 C 9.632812 -8.066406 8.894531 -7.9375 8.28125 -7.625 C 7.9375 -7.4375 7.628906 -7.109375 7.359375 -6.640625 C 7.085938 -6.179688 6.898438 -5.644531 6.796875 -5.03125 C 6.742188 -4.789062 6.71875 -3.578125 6.71875 -1.390625 L 6.71875 1.890625 L 1.734375 1.890625 L 1.734375 -5.03125 C 1.734375 -7.363281 1.726562 -9.09375 1.71875 -10.21875 C 1.71875 -11.34375 1.695312 -11.921875 1.65625 -11.953125 C 1.570312 -12.140625 1.457031 -12.265625 1.3125 -12.328125 C 1.300781 -12.347656 1.3125 -12.363281 1.34375 -12.375 C 1.425781 -12.394531 1.6875 -12.40625 2.125 -12.40625 C 2.5625 -12.40625 3.175781 -12.40625 3.96875 -12.40625 L 6.71875 -12.40625 L 6.71875 -9.96875 L 6.890625 -10.328125 C 7.210938 -11.066406 7.722656 -11.632812 8.421875 -12.03125 C 9.128906 -12.425781 9.878906 -12.625 10.671875 -12.625 Z M 10.671875 -12.625 "/></g></g><g style="fill:#0a0a0e;fill-opacity:1;"><g transform="translate(96.45338, 36.281316)"><path style="stroke:none" d="M 8.1875 -12.625 C 8.882812 -12.625 9.554688 -12.570312 10.203125 -12.46875 C 10.859375 -12.375 11.453125 -12.191406 11.984375 -11.921875 C 12.523438 -11.660156 13 -11.296875 13.40625 -10.828125 C 13.8125 -10.367188 14.125 -9.78125 14.34375 -9.0625 L 14.46875 -8.6875 L 14.46875 1.890625 L 9.578125 1.890625 L 9.578125 -4.265625 L 8.21875 -4.25 L 6.828125 -4.25 L 6.546875 -4.125 C 6.265625 -3.988281 6.082031 -3.710938 6 -3.296875 C 5.875 -2.671875 6 -2.160156 6.375 -1.765625 C 6.625 -1.460938 7.0625 -1.3125 7.6875 -1.3125 C 7.925781 -1.3125 8.160156 -1.332031 8.390625 -1.375 C 8.617188 -1.414062 8.832031 -1.488281 9.03125 -1.59375 C 9.0625 -1.59375 9.078125 -1.570312 9.078125 -1.53125 C 9.097656 -1.46875 9.109375 -0.988281 9.109375 -0.09375 L 9.109375 1.390625 L 8.859375 1.53125 C 8.429688 1.75 7.96875 1.90625 7.46875 2 C 6.96875 2.09375 6.476562 2.140625 6 2.140625 C 5.71875 2.140625 5.453125 2.125 5.203125 2.09375 C 4.960938 2.070312 4.722656 2.023438 4.484375 1.953125 C 3.265625 1.628906 2.316406 0.984375 1.640625 0.015625 C 0.960938 -0.941406 0.644531 -2.0625 0.6875 -3.34375 C 0.789062 -5.445312 1.914062 -6.707031 4.0625 -7.125 C 4.300781 -7.15625 5.285156 -7.1875 7.015625 -7.21875 L 9.578125 -7.25 L 9.546875 -7.6875 C 9.515625 -8.320312 9.34375 -8.726562 9.03125 -8.90625 C 8.71875 -9.09375 8.28125 -9.1875 7.71875 -9.1875 C 7.613281 -9.1875 7.472656 -9.175781 7.296875 -9.15625 C 7.128906 -9.132812 6.953125 -9.101562 6.765625 -9.0625 C 6.585938 -9.019531 6.421875 -8.960938 6.265625 -8.890625 C 6.117188 -8.816406 6.023438 -8.710938 5.984375 -8.578125 L 5.9375 -8.46875 L 1.390625 -8.46875 C 1.390625 -8.5625 1.53125 -8.90625 1.8125 -9.5 C 2.0625 -9.945312 2.363281 -10.367188 2.71875 -10.765625 C 3.070312 -11.160156 3.414062 -11.476562 3.75 -11.71875 C 4.425781 -12.144531 5.140625 -12.398438 5.890625 -12.484375 C 6.640625 -12.578125 7.40625 -12.625 8.1875 -12.625 Z M 8.1875 -12.625 "/></g></g><g style="fill:#0a0a0e;fill-opacity:1;"><g transform="translate(112.535762, 36.281316)"><path style="stroke:none" d=""/></g></g><g style="fill:#0a0a0e;fill-opacity:1;"><g transform="translate(117.499457, 36.281316)"><path style="stroke:none" d="M 1.46875 -16.71875 C 1.445312 -16.71875 1.460938 -16.726562 1.515625 -16.75 C 1.597656 -16.757812 1.847656 -16.765625 2.265625 -16.765625 C 2.691406 -16.765625 3.289062 -16.765625 4.0625 -16.765625 L 6.84375 -16.765625 L 6.84375 1.890625 L 1.8125 1.890625 L 1.8125 -16.34375 L 1.71875 -16.5 C 1.613281 -16.601562 1.53125 -16.675781 1.46875 -16.71875 Z M 8.65625 -16.890625 C 8.820312 -16.910156 9.015625 -16.925781 9.234375 -16.9375 C 9.460938 -16.945312 9.726562 -16.941406 10.03125 -16.921875 C 10.71875 -16.890625 11.347656 -16.816406 11.921875 -16.703125 C 12.503906 -16.585938 13.046875 -16.40625 13.546875 -16.15625 C 14.046875 -15.90625 14.503906 -15.582031 14.921875 -15.1875 C 15.347656 -14.800781 15.757812 -14.3125 16.15625 -13.71875 C 16.894531 -12.582031 17.40625 -11.285156 17.6875 -9.828125 C 17.9375 -8.503906 18.003906 -7.222656 17.890625 -5.984375 C 17.773438 -4.804688 17.492188 -3.726562 17.046875 -2.75 C 16.597656 -1.78125 16.007812 -0.9375 15.28125 -0.21875 C 14.550781 0.488281 13.691406 1.035156 12.703125 1.421875 C 11.722656 1.816406 10.628906 2.015625 9.421875 2.015625 C 9.066406 2.015625 8.738281 1.992188 8.4375 1.953125 C 8.132812 1.910156 7.851562 1.847656 7.59375 1.765625 C 7.53125 1.742188 7.5 1.15625 7.5 0 L 7.5 -1.734375 L 8.28125 -1.734375 C 9.113281 -1.734375 9.8125 -1.859375 10.375 -2.109375 C 10.9375 -2.359375 11.390625 -2.707031 11.734375 -3.15625 C 12.078125 -3.613281 12.328125 -4.164062 12.484375 -4.8125 C 12.648438 -5.457031 12.75 -6.1875 12.78125 -7 C 12.8125 -7.613281 12.796875 -8.28125 12.734375 -9 C 12.679688 -9.71875 12.546875 -10.363281 12.328125 -10.9375 C 12.179688 -11.375 11.972656 -11.734375 11.703125 -12.015625 C 11.429688 -12.296875 11.125 -12.519531 10.78125 -12.6875 C 10.4375 -12.863281 10.070312 -12.992188 9.6875 -13.078125 C 9.300781 -13.160156 8.898438 -13.207031 8.484375 -13.21875 L 7.5 -13.25 L 7.5 -16.671875 L 7.890625 -16.765625 C 8.191406 -16.847656 8.445312 -16.890625 8.65625 -16.890625 Z M 8.65625 -16.890625 "/></g></g><g style="fill:#0a0a0e;fill-opacity:1;"><g transform="translate(136.584887, 36.281316)"><path style="stroke:none" d="M 8.40625 -12.5625 L 8.859375 -12.53125 C 9.847656 -12.476562 10.734375 -12.269531 11.515625 -11.90625 C 12.304688 -11.539062 12.976562 -11.050781 13.53125 -10.4375 C 14.082031 -9.832031 14.507812 -9.125 14.8125 -8.3125 C 15.125 -7.5 15.304688 -6.613281 15.359375 -5.65625 C 15.421875 -4.113281 15.148438 -2.71875 14.546875 -1.46875 C 13.679688 0.269531 12.265625 1.363281 10.296875 1.8125 C 9.703125 1.976562 9.15625 2.0625 8.65625 2.0625 L 8.46875 2.0625 L 8.4375 1.3125 C 8.457031 1.050781 8.46875 0.78125 8.46875 0.5 C 8.46875 0.226562 8.46875 -0.0625 8.46875 -0.375 C 8.46875 -1 8.484375 -1.3125 8.515625 -1.3125 C 8.773438 -1.3125 9.078125 -1.4375 9.421875 -1.6875 C 10.054688 -2.050781 10.460938 -2.84375 10.640625 -4.0625 C 10.660156 -4.195312 10.671875 -4.367188 10.671875 -4.578125 C 10.679688 -4.785156 10.679688 -5.03125 10.671875 -5.3125 C 10.648438 -5.601562 10.628906 -5.847656 10.609375 -6.046875 C 10.597656 -6.253906 10.578125 -6.421875 10.546875 -6.546875 C 10.441406 -7.160156 10.253906 -7.691406 9.984375 -8.140625 C 9.710938 -8.597656 9.238281 -8.882812 8.5625 -9 L 8.40625 -9.03125 Z M 6.890625 -12.5 C 6.972656 -12.519531 7.066406 -12.53125 7.171875 -12.53125 C 7.285156 -12.53125 7.410156 -12.539062 7.546875 -12.5625 L 7.859375 -12.5625 L 7.859375 -11.046875 C 7.859375 -10.566406 7.859375 -10.175781 7.859375 -9.875 C 7.859375 -9.570312 7.851562 -9.363281 7.84375 -9.25 L 7.84375 -9.03125 L 7.5625 -8.953125 C 6.789062 -8.828125 6.265625 -8.332031 5.984375 -7.46875 C 5.847656 -7.082031 5.765625 -6.644531 5.734375 -6.15625 C 5.703125 -5.675781 5.703125 -5.144531 5.734375 -4.5625 C 5.765625 -4.25 5.804688 -3.929688 5.859375 -3.609375 C 5.910156 -3.285156 6 -2.976562 6.125 -2.6875 C 6.257812 -2.40625 6.429688 -2.160156 6.640625 -1.953125 C 6.859375 -1.742188 7.144531 -1.585938 7.5 -1.484375 L 7.8125 -1.421875 L 7.84375 0.296875 L 7.84375 2.015625 L 7.375 2.015625 C 6.050781 2.015625 4.847656 1.648438 3.765625 0.921875 C 2.234375 -0.117188 1.332031 -1.820312 1.0625 -4.1875 C 0.832031 -6.113281 1.128906 -7.800781 1.953125 -9.25 C 2.453125 -10.144531 3.140625 -10.878906 4.015625 -11.453125 C 4.890625 -12.035156 5.847656 -12.382812 6.890625 -12.5 Z M 6.890625 -12.5 "/></g></g><g style="fill:#0a0a0e;fill-opacity:1;"><g transform="translate(152.965097, 36.281316)"><path style="stroke:none" d="M 7.078125 -12.484375 C 7.191406 -12.492188 7.296875 -12.5 7.390625 -12.5 C 7.492188 -12.5 7.585938 -12.507812 7.671875 -12.53125 L 7.890625 -12.53125 L 7.890625 -10.765625 L 7.859375 -9.0625 L 7.640625 -9.03125 C 7.273438 -8.9375 6.976562 -8.765625 6.75 -8.515625 C 6.53125 -8.265625 6.359375 -7.984375 6.234375 -7.671875 C 6.109375 -7.367188 6.023438 -7.039062 5.984375 -6.6875 C 5.953125 -6.34375 5.925781 -6.007812 5.90625 -5.6875 C 5.875 -4.175781 6 -3.082031 6.28125 -2.40625 C 6.394531 -2.101562 6.585938 -1.863281 6.859375 -1.6875 C 7.128906 -1.507812 7.429688 -1.421875 7.765625 -1.421875 L 7.890625 -1.421875 L 7.890625 1.984375 L 7.640625 1.984375 C 7.210938 1.984375 6.71875 1.910156 6.15625 1.765625 C 5.59375 1.628906 5.085938 1.472656 4.640625 1.296875 C 3.796875 0.910156 3.125 0.441406 2.625 -0.109375 C 2.132812 -0.660156 1.75 -1.378906 1.46875 -2.265625 C 1.132812 -3.253906 0.984375 -4.367188 1.015625 -5.609375 C 1.046875 -6.535156 1.207031 -7.382812 1.5 -8.15625 C 1.800781 -8.9375 2.210938 -9.625 2.734375 -10.21875 C 3.253906 -10.8125 3.878906 -11.296875 4.609375 -11.671875 C 5.335938 -12.054688 6.160156 -12.328125 7.078125 -12.484375 Z M 8.46875 -12.53125 L 8.90625 -12.5 C 9.6875 -12.457031 10.398438 -12.296875 11.046875 -12.015625 C 11.691406 -11.734375 12.253906 -11.351562 12.734375 -10.875 C 13.210938 -10.40625 13.609375 -9.851562 13.921875 -9.21875 C 14.234375 -8.59375 14.445312 -7.910156 14.5625 -7.171875 L 14.5625 -7.015625 L 9.84375 -7.015625 L 9.75 -7.5 C 9.664062 -8.019531 9.546875 -8.394531 9.390625 -8.625 C 9.234375 -8.863281 9 -9 8.6875 -9.03125 L 8.46875 -9.0625 Z M 9.703125 -3.078125 L 9.84375 -3.46875 L 14.484375 -3.46875 L 14.46875 -3.25 C 14.394531 -2.601562 14.203125 -1.96875 13.890625 -1.34375 C 13.578125 -0.726562 13.195312 -0.179688 12.75 0.296875 C 11.738281 1.304688 10.429688 1.859375 8.828125 1.953125 L 8.53125 1.953125 L 8.53125 -1.390625 L 8.703125 -1.515625 C 9.097656 -1.742188 9.429688 -2.265625 9.703125 -3.078125 Z M 9.703125 -3.078125 "/></g></g><g style="fill:#0a0a0e;fill-opacity:1;"><g transform="translate(168.154021, 36.281316)"><path style="stroke:none" d="M 7.46875 -12.609375 C 8.257812 -12.609375 9.066406 -12.484375 9.890625 -12.234375 C 10.722656 -11.984375 11.4375 -11.601562 12.03125 -11.09375 C 12.363281 -10.789062 12.660156 -10.382812 12.921875 -9.875 C 13.191406 -9.363281 13.351562 -8.882812 13.40625 -8.4375 L 13.453125 -8.1875 L 8.78125 -8.1875 L 8.734375 -8.4375 C 8.671875 -8.8125 8.515625 -9.09375 8.265625 -9.28125 C 8.015625 -9.476562 7.71875 -9.578125 7.375 -9.578125 C 6.957031 -9.578125 6.625 -9.503906 6.375 -9.359375 C 6.15625 -9.203125 6.015625 -9.019531 5.953125 -8.8125 C 5.890625 -8.613281 5.90625 -8.421875 6 -8.234375 C 6.082031 -8.117188 6.191406 -8.019531 6.328125 -7.9375 C 6.460938 -7.851562 6.617188 -7.769531 6.796875 -7.6875 C 7.160156 -7.539062 7.832031 -7.351562 8.8125 -7.125 C 9.1875 -7.039062 9.582031 -6.9375 10 -6.8125 C 10.425781 -6.6875 10.835938 -6.53125 11.234375 -6.34375 C 11.628906 -6.164062 12 -5.941406 12.34375 -5.671875 C 12.6875 -5.410156 12.957031 -5.097656 13.15625 -4.734375 C 13.582031 -4.003906 13.742188 -3.171875 13.640625 -2.234375 C 13.554688 -1.410156 13.320312 -0.71875 12.9375 -0.15625 C 12.550781 0.394531 12.066406 0.832031 11.484375 1.15625 C 10.910156 1.488281 10.269531 1.722656 9.5625 1.859375 C 8.863281 2.003906 8.148438 2.078125 7.421875 2.078125 C 6.671875 2.078125 5.914062 2.007812 5.15625 1.875 C 4.394531 1.75 3.703125 1.515625 3.078125 1.171875 C 2.453125 0.835938 1.925781 0.382812 1.5 -0.1875 C 1.082031 -0.769531 0.832031 -1.507812 0.75 -2.40625 L 0.71875 -2.6875 L 3.046875 -2.65625 L 5.359375 -2.65625 L 5.40625 -2.40625 C 5.4375 -2.15625 5.519531 -1.945312 5.65625 -1.78125 C 5.800781 -1.613281 5.96875 -1.472656 6.15625 -1.359375 C 6.351562 -1.242188 6.566406 -1.160156 6.796875 -1.109375 C 7.023438 -1.066406 7.25 -1.046875 7.46875 -1.046875 C 7.644531 -1.046875 7.84375 -1.066406 8.0625 -1.109375 C 8.289062 -1.148438 8.472656 -1.234375 8.609375 -1.359375 C 8.773438 -1.515625 8.882812 -1.6875 8.9375 -1.875 C 9 -2.0625 8.988281 -2.238281 8.90625 -2.40625 C 8.84375 -2.539062 8.753906 -2.65625 8.640625 -2.75 C 8.535156 -2.851562 8.398438 -2.945312 8.234375 -3.03125 C 8.109375 -3.09375 7.847656 -3.179688 7.453125 -3.296875 C 7.066406 -3.410156 6.5625 -3.5625 5.9375 -3.75 C 4.375 -4.175781 3.28125 -4.601562 2.65625 -5.03125 C 2.125 -5.382812 1.742188 -5.816406 1.515625 -6.328125 C 1.296875 -6.835938 1.1875 -7.390625 1.1875 -7.984375 C 1.175781 -8.617188 1.285156 -9.195312 1.515625 -9.71875 C 1.804688 -10.300781 2.164062 -10.78125 2.59375 -11.15625 C 3.03125 -11.53125 3.507812 -11.820312 4.03125 -12.03125 C 4.550781 -12.25 5.101562 -12.398438 5.6875 -12.484375 C 6.28125 -12.566406 6.875 -12.609375 7.46875 -12.609375 Z M 7.46875 -12.609375 "/></g></g></g></svg>