<svg xmlns="http://www.w3.org/2000/svg" xmlns:xlink="http://www.w3.org/1999/xlink" width="2191" zoomAndPan="magnify" viewBox="0 0 1643.25 362.999992" height="484" preserveAspectRatio="xMidYMid meet" version="1.2"><defs><clipPath id="f6c7ab1375"><path d="M 0 0.0820312 L 1642.5 0.0820312 L 1642.5 362.917969 L 0 362.917969 Z M 0 0.0820312 "/></clipPath><clipPath id="d7fff87a5b"><path d="M 51.230469 60.480469 L 293.265625 60.480469 L 293.265625 302.519531 L 51.230469 302.519531 Z M 51.230469 60.480469 "/></clipPath><clipPath id="a0e9998e6a"><path d="M 172.246094 60.480469 C 105.410156 60.480469 51.230469 114.664062 51.230469 181.5 C 51.230469 248.335938 105.410156 302.519531 172.246094 302.519531 C 239.085938 302.519531 293.265625 248.335938 293.265625 181.5 C 293.265625 114.664062 239.085938 60.480469 172.246094 60.480469 Z M 172.246094 60.480469 "/></clipPath><linearGradient x1="0.00000314345" gradientTransform="matrix(0.945454,0,0,0.945454,51.229567,60.4819)" y1="0.00000314345" x2="255.999996" gradientUnits="userSpaceOnUse" y2="255.999996" id="b28604dde5"><stop style="stop-color:#533afd;stop-opacity:1;" offset="0"/><stop style="stop-color:#533afd;stop-opacity:1;" offset="0.0078125"/><stop style="stop-color:#543bfd;stop-opacity:1;" offset="0.015625"/><stop style="stop-color:#553bfd;stop-opacity:1;" offset="0.0234375"/><stop style="stop-color:#563cfd;stop-opacity:1;" offset="0.03125"/><stop style="stop-color:#573cfd;stop-opacity:1;" offset="0.0390625"/><stop style="stop-color:#583dfd;stop-opacity:1;" offset="0.046875"/><stop style="stop-color:#583dfd;stop-opacity:1;" offset="0.0546875"/><stop style="stop-color:#593efd;stop-opacity:1;" offset="0.0625"/><stop style="stop-color:#5a3ffd;stop-opacity:1;" offset="0.0703125"/><stop style="stop-color:#5b3ffd;stop-opacity:1;" offset="0.078125"/><stop style="stop-color:#5c40fd;stop-opacity:1;" offset="0.0859375"/><stop style="stop-color:#5d40fd;stop-opacity:1;" offset="0.09375"/><stop style="stop-color:#5d41fd;stop-opacity:1;" offset="0.101562"/><stop style="stop-color:#5e41fd;stop-opacity:1;" offset="0.109375"/><stop style="stop-color:#5f42fd;stop-opacity:1;" offset="0.117187"/><stop style="stop-color:#6042fd;stop-opacity:1;" offset="0.125"/><stop style="stop-color:#6143fd;stop-opacity:1;" offset="0.132812"/><stop style="stop-color:#6243fd;stop-opacity:1;" offset="0.140625"/><stop style="stop-color:#6244fd;stop-opacity:1;" offset="0.148437"/><stop style="stop-color:#6345fd;stop-opacity:1;" offset="0.15625"/><stop style="stop-color:#6445fd;stop-opacity:1;" offset="0.164062"/><stop style="stop-color:#6546fd;stop-opacity:1;" offset="0.171875"/><stop style="stop-color:#6646fd;stop-opacity:1;" offset="0.179687"/><stop style="stop-color:#6747fd;stop-opacity:1;" offset="0.1875"/><stop style="stop-color:#6847fd;stop-opacity:1;" offset="0.195312"/><stop style="stop-color:#6848fd;stop-opacity:1;" offset="0.203125"/><stop style="stop-color:#6948fd;stop-opacity:1;" offset="0.210937"/><stop style="stop-color:#6a49fd;stop-opacity:1;" offset="0.21875"/><stop style="stop-color:#6b49fd;stop-opacity:1;" offset="0.226562"/><stop style="stop-color:#6c4afd;stop-opacity:1;" offset="0.234375"/><stop style="stop-color:#6d4bfd;stop-opacity:1;" offset="0.242187"/><stop style="stop-color:#6d4bfd;stop-opacity:1;" offset="0.25"/><stop style="stop-color:#6e4cfd;stop-opacity:1;" offset="0.257812"/><stop style="stop-color:#6f4cfd;stop-opacity:1;" offset="0.265625"/><stop style="stop-color:#704dfe;stop-opacity:1;" offset="0.273437"/><stop style="stop-color:#714dfe;stop-opacity:1;" offset="0.28125"/><stop style="stop-color:#724efe;stop-opacity:1;" offset="0.289062"/><stop style="stop-color:#734efe;stop-opacity:1;" offset="0.296875"/><stop style="stop-color:#734ffe;stop-opacity:1;" offset="0.304688"/><stop style="stop-color:#7450fe;stop-opacity:1;" offset="0.3125"/><stop style="stop-color:#7550fe;stop-opacity:1;" offset="0.320312"/><stop style="stop-color:#7651fe;stop-opacity:1;" offset="0.328125"/><stop style="stop-color:#7751fe;stop-opacity:1;" offset="0.335937"/><stop style="stop-color:#7852fe;stop-opacity:1;" offset="0.34375"/><stop style="stop-color:#7852fe;stop-opacity:1;" offset="0.351562"/><stop style="stop-color:#7953fe;stop-opacity:1;" offset="0.359375"/><stop style="stop-color:#7a53fe;stop-opacity:1;" offset="0.367187"/><stop style="stop-color:#7b54fe;stop-opacity:1;" offset="0.375"/><stop style="stop-color:#7c54fe;stop-opacity:1;" offset="0.382812"/><stop style="stop-color:#7d55fe;stop-opacity:1;" offset="0.390625"/><stop style="stop-color:#7e56fe;stop-opacity:1;" offset="0.398437"/><stop style="stop-color:#7e56fe;stop-opacity:1;" offset="0.40625"/><stop style="stop-color:#7f57fe;stop-opacity:1;" offset="0.414062"/><stop style="stop-color:#8057fe;stop-opacity:1;" offset="0.421875"/><stop style="stop-color:#8158fe;stop-opacity:1;" offset="0.429687"/><stop style="stop-color:#8258fe;stop-opacity:1;" offset="0.4375"/><stop style="stop-color:#8359fe;stop-opacity:1;" offset="0.445312"/><stop style="stop-color:#8359fe;stop-opacity:1;" offset="0.453125"/><stop style="stop-color:#845afe;stop-opacity:1;" offset="0.460937"/><stop style="stop-color:#855afe;stop-opacity:1;" offset="0.46875"/><stop style="stop-color:#865bfe;stop-opacity:1;" offset="0.476562"/><stop style="stop-color:#875cfe;stop-opacity:1;" offset="0.484375"/><stop style="stop-color:#885cfe;stop-opacity:1;" offset="0.492187"/><stop style="stop-color:#895dfe;stop-opacity:1;" offset="0.5"/><stop style="stop-color:#895dfe;stop-opacity:1;" offset="0.5"/><stop style="stop-color:#8a5dfe;stop-opacity:1;" offset="0.507812"/><stop style="stop-color:#8a5efe;stop-opacity:1;" offset="0.515625"/><stop style="stop-color:#8b5efe;stop-opacity:1;" offset="0.523438"/><stop style="stop-color:#8c5ffe;stop-opacity:1;" offset="0.53125"/><stop style="stop-color:#8d5ffe;stop-opacity:1;" offset="0.539062"/><stop style="stop-color:#8e60fe;stop-opacity:1;" offset="0.546875"/><stop style="stop-color:#8e61fe;stop-opacity:1;" offset="0.554687"/><stop style="stop-color:#8f61fe;stop-opacity:1;" offset="0.5625"/><stop style="stop-color:#9062fe;stop-opacity:1;" offset="0.570312"/><stop style="stop-color:#9162fe;stop-opacity:1;" offset="0.578125"/><stop style="stop-color:#9263fe;stop-opacity:1;" offset="0.585937"/><stop style="stop-color:#9363fe;stop-opacity:1;" offset="0.59375"/><stop style="stop-color:#9364fe;stop-opacity:1;" offset="0.601562"/><stop style="stop-color:#9464fe;stop-opacity:1;" offset="0.609375"/><stop style="stop-color:#9565fe;stop-opacity:1;" offset="0.617187"/><stop style="stop-color:#9665fe;stop-opacity:1;" offset="0.625"/><stop style="stop-color:#9766fe;stop-opacity:1;" offset="0.632812"/><stop style="stop-color:#9867fe;stop-opacity:1;" offset="0.640625"/><stop style="stop-color:#9967fe;stop-opacity:1;" offset="0.648437"/><stop style="stop-color:#9968fe;stop-opacity:1;" offset="0.65625"/><stop style="stop-color:#9a68fe;stop-opacity:1;" offset="0.664062"/><stop style="stop-color:#9b69fe;stop-opacity:1;" offset="0.671875"/><stop style="stop-color:#9c69fe;stop-opacity:1;" offset="0.679687"/><stop style="stop-color:#9d6afe;stop-opacity:1;" offset="0.6875"/><stop style="stop-color:#9e6afe;stop-opacity:1;" offset="0.695312"/><stop style="stop-color:#9e6bfe;stop-opacity:1;" offset="0.703125"/><stop style="stop-color:#9f6bfe;stop-opacity:1;" offset="0.710937"/><stop style="stop-color:#a06cfe;stop-opacity:1;" offset="0.71875"/><stop style="stop-color:#a16dfe;stop-opacity:1;" offset="0.726562"/><stop style="stop-color:#a26dfe;stop-opacity:1;" offset="0.734375"/><stop style="stop-color:#a36efe;stop-opacity:1;" offset="0.742187"/><stop style="stop-color:#a46efe;stop-opacity:1;" offset="0.75"/><stop style="stop-color:#a46ffe;stop-opacity:1;" offset="0.757812"/><stop style="stop-color:#a56fff;stop-opacity:1;" offset="0.765625"/><stop style="stop-color:#a670ff;stop-opacity:1;" offset="0.773437"/><stop style="stop-color:#a770ff;stop-opacity:1;" offset="0.78125"/><stop style="stop-color:#a871ff;stop-opacity:1;" offset="0.789062"/><stop style="stop-color:#a971ff;stop-opacity:1;" offset="0.796875"/><stop style="stop-color:#a972ff;stop-opacity:1;" offset="0.804687"/><stop style="stop-color:#aa73ff;stop-opacity:1;" offset="0.8125"/><stop style="stop-color:#ab73ff;stop-opacity:1;" offset="0.820312"/><stop style="stop-color:#ac74ff;stop-opacity:1;" offset="0.828125"/><stop style="stop-color:#ad74ff;stop-opacity:1;" offset="0.835938"/><stop style="stop-color:#ae75ff;stop-opacity:1;" offset="0.84375"/><stop style="stop-color:#af75ff;stop-opacity:1;" offset="0.851562"/><stop style="stop-color:#af76ff;stop-opacity:1;" offset="0.859375"/><stop style="stop-color:#b076ff;stop-opacity:1;" offset="0.867188"/><stop style="stop-color:#b177ff;stop-opacity:1;" offset="0.875"/><stop style="stop-color:#b278ff;stop-opacity:1;" offset="0.882812"/><stop style="stop-color:#b378ff;stop-opacity:1;" offset="0.890625"/><stop style="stop-color:#b479ff;stop-opacity:1;" offset="0.898437"/><stop style="stop-color:#b479ff;stop-opacity:1;" offset="0.90625"/><stop style="stop-color:#b57aff;stop-opacity:1;" offset="0.914062"/><stop style="stop-color:#b67aff;stop-opacity:1;" offset="0.921875"/><stop style="stop-color:#b77bff;stop-opacity:1;" offset="0.929687"/><stop style="stop-color:#b87bff;stop-opacity:1;" offset="0.9375"/><stop style="stop-color:#b97cff;stop-opacity:1;" offset="0.945312"/><stop style="stop-color:#b97cff;stop-opacity:1;" offset="0.953125"/><stop style="stop-color:#ba7dff;stop-opacity:1;" offset="0.960937"/><stop style="stop-color:#bb7eff;stop-opacity:1;" offset="0.96875"/><stop style="stop-color:#bc7eff;stop-opacity:1;" offset="0.976562"/><stop style="stop-color:#bd7fff;stop-opacity:1;" offset="0.984375"/><stop style="stop-color:#be7fff;stop-opacity:1;" offset="0.992187"/><stop style="stop-color:#bf80ff;stop-opacity:1;" offset="1"/></linearGradient><clipPath id="92753f580d"><path d="M 82 91.652344 L 172 91.652344 L 172 183 L 82 183 Z M 82 91.652344 "/></clipPath><clipPath id="5a455de124"><path d="M 145 185 L 223 185 L 223 269.757812 L 145 269.757812 Z M 145 185 "/></clipPath><clipPath id="41f304d9fa"><path d="M 127 201 L 194 201 L 194 269.757812 L 127 269.757812 Z M 127 201 "/></clipPath><clipPath id="f2e5d853f0"><path d="M 102 91.652344 L 236.726562 91.652344 L 236.726562 254 L 102 254 Z M 102 91.652344 "/></clipPath><clipPath id="28e1c7a78a"><path d="M 91 91.652344 L 204 91.652344 L 204 211 L 91 211 Z M 91 91.652344 "/></clipPath></defs><g id="92ecaaf5ce"><g clip-rule="nonzero" clip-path="url(#f6c7ab1375)"><path style=" stroke:none;fill-rule:nonzero;fill:#ffffff;fill-opacity:1;" d="M 0 0.0820312 L 1642.5 0.0820312 L 1642.5 362.917969 L 0 362.917969 Z M 0 0.0820312 "/><path style=" stroke:none;fill-rule:nonzero;fill:#ffffff;fill-opacity:1;" d="M 0 0.0820312 L 1642.5 0.0820312 L 1642.5 362.917969 L 0 362.917969 Z M 0 0.0820312 "/></g><g clip-rule="nonzero" clip-path="url(#d7fff87a5b)"><g clip-rule="nonzero" clip-path="url(#a0e9998e6a)"><path style=" stroke:none;fill-rule:nonzero;fill:url(#b28604dde5);" d="M 51.230469 60.480469 L 51.230469 302.519531 L 293.265625 302.519531 L 293.265625 60.480469 Z M 51.230469 60.480469 "/></g></g><g clip-rule="nonzero" clip-path="url(#92753f580d)"><path style=" stroke:none;fill-rule:nonzero;fill:#ffffff;fill-opacity:1;" d="M 86.59375 182.765625 C 84.214844 170.496094 95.125 158.996094 95.238281 158.878906 L 95.246094 158.875 L 171.625 91.632812 L 154.40625 91.632812 L 91.804688 147.6875 C 84.871094 153.898438 81.628906 163.019531 83.128906 172.085938 C 83.972656 177.171875 85.785156 181.175781 86.59375 182.765625 "/></g><g clip-rule="nonzero" clip-path="url(#5a455de124)"><path style=" stroke:none;fill-rule:nonzero;fill:#ffffff;fill-opacity:1;" d="M 145.9375 195.191406 L 206.070312 269.085938 L 222.328125 269.085938 L 155.59375 185.539062 L 145.9375 195.191406 "/></g><g clip-rule="nonzero" clip-path="url(#41f304d9fa)"><path style=" stroke:none;fill-rule:nonzero;fill:#ffffff;fill-opacity:1;" d="M 127.199219 213.113281 L 172.070312 269.085938 L 193.390625 269.085938 L 138.929688 201.683594 L 127.199219 213.113281 "/></g><g clip-rule="nonzero" clip-path="url(#f2e5d853f0)"><path style=" stroke:none;fill-rule:nonzero;fill:#ffffff;fill-opacity:1;" d="M 134.285156 252.902344 C 134.152344 252.769531 134.007812 252.625 133.859375 252.472656 C 133.78125 252.394531 133.699219 252.308594 133.613281 252.226562 C 133.519531 252.128906 133.421875 252.03125 133.324219 251.925781 C 133.242188 251.84375 133.164062 251.761719 133.078125 251.675781 C 130.710938 249.214844 127.058594 245.09375 123.78125 240.027344 C 121.410156 236.359375 118.832031 231.757812 117.289062 226.769531 C 115.917969 220.144531 118 213.140625 122.84375 208.183594 L 236.71875 91.632812 L 215.167969 91.632812 L 112.410156 193.710938 C 110.875 195.234375 88.921875 217.105469 116.390625 253.976562 L 135.402344 253.976562 C 135.1875 253.777344 134.824219 253.433594 134.355469 252.964844 L 134.285156 252.902344 "/></g><g clip-rule="nonzero" clip-path="url(#28e1c7a78a)"><path style=" stroke:none;fill-rule:nonzero;fill:#ffffff;fill-opacity:1;" d="M 186.546875 91.625 L 186.519531 91.644531 L 104.488281 168.128906 L 102.320312 170.148438 C 96.671875 175.421875 92.972656 182.46875 92.015625 190.007812 L 92.007812 190.042969 C 91.9375 190.5 91.886719 190.949219 91.871094 191.378906 L 91.871094 191.421875 C 91.765625 192.746094 91.742188 194.089844 91.808594 195.4375 C 92.050781 200.117188 93.332031 205.175781 96.515625 210.078125 C 96.515625 210.078125 95.113281 198.371094 101.667969 191.730469 L 203.558594 91.679688 L 203.621094 91.625 L 186.546875 91.625 "/></g><g style="fill:#0a0a0e;fill-opacity:1;"><g transform="translate(351.26472, 236.69227)"><path style="stroke:none" d="M 12.859375 -146.546875 C 12.285156 -146.835938 12.429688 -146.984375 13.296875 -146.984375 C 14.753906 -147.273438 22.242188 -147.421875 35.765625 -147.421875 L 59.75 -147.421875 L 59.96875 -116.015625 L 59.96875 -83.3125 L 62.59375 -86.578125 C 74.363281 -102.273438 83.921875 -114.992188 91.265625 -124.734375 C 98.609375 -134.484375 103.804688 -141.535156 106.859375 -145.890625 L 107.953125 -147.421875 L 163.78125 -147.421875 L 162.6875 -146.328125 C 160.070312 -143.421875 155.347656 -138.148438 148.515625 -130.515625 C 141.679688 -122.890625 132.738281 -112.675781 121.6875 -99.875 C 110.632812 -87.082031 100.851562 -75.707031 92.34375 -65.75 C 83.84375 -55.789062 76.539062 -47.175781 70.4375 -39.90625 L 59.75 -27.265625 L 59.75 16.578125 L 17.015625 16.578125 L 17.015625 -64.546875 C 17.015625 -91.003906 16.976562 -110.628906 16.90625 -123.421875 C 16.832031 -136.222656 16.648438 -142.84375 16.359375 -143.28125 C 15.628906 -144.875 14.460938 -145.960938 12.859375 -146.546875 Z M 93.984375 -59.09375 C 103.878906 -70.4375 109.113281 -76.109375 109.6875 -76.109375 C 109.832031 -75.816406 110.195312 -75.195312 110.78125 -74.25 C 111.363281 -73.3125 112.238281 -71.894531 113.40625 -70 C 114.125 -68.84375 115.828125 -65.9375 118.515625 -61.28125 C 121.210938 -56.625 124.34375 -51.132812 127.90625 -44.8125 C 131.46875 -38.488281 135.28125 -31.765625 139.34375 -24.640625 C 143.414062 -17.515625 147.125 -10.9375 150.46875 -4.90625 C 153.8125 1.125 156.609375 6.140625 158.859375 10.140625 C 161.117188 14.140625 162.25 16.285156 162.25 16.578125 C 162.25 16.867188 153.597656 16.867188 136.296875 16.578125 L 110.34375 16.578125 L 104.890625 6.546875 C 102.566406 2.328125 99.914062 -2.503906 96.9375 -7.953125 C 93.957031 -13.410156 90.578125 -19.554688 86.796875 -26.390625 C 81.703125 -35.691406 79.15625 -40.414062 79.15625 -40.5625 C 79.15625 -40.851562 84.097656 -47.03125 93.984375 -59.09375 Z M 93.984375 -59.09375 "/></g></g><g style="fill:#0a0a0e;fill-opacity:1;"><g transform="translate(522.016311, 236.69227)"><path style="stroke:none" d="M 13.296875 -153.53125 L 12 -154.40625 L 60.40625 -154.40625 L 60.40625 16.578125 L 16.359375 16.578125 L 16.359375 -63.453125 C 16.503906 -83.804688 16.539062 -100.378906 16.46875 -113.171875 C 16.394531 -125.972656 16.359375 -134.410156 16.359375 -138.484375 C 16.210938 -146.617188 15.992188 -150.976562 15.703125 -151.5625 C 15.265625 -152.4375 14.460938 -153.09375 13.296875 -153.53125 Z M 13.296875 -153.53125 "/></g></g><g style="fill:#0a0a0e;fill-opacity:1;"><g transform="translate(598.778264, 236.69227)"><path style="stroke:none" d="M 6.765625 -107.953125 L 4.578125 -109.046875 L 55.828125 -109.046875 L 57.359375 -102.71875 C 59.390625 -93.988281 61.492188 -85.769531 63.671875 -78.0625 C 65.859375 -70.363281 67.894531 -63.023438 69.78125 -56.046875 C 70.945312 -51.535156 71.710938 -48.804688 72.078125 -47.859375 C 72.441406 -46.921875 72.550781 -46.453125 72.40625 -46.453125 C 72.550781 -46.597656 76.328125 -59.828125 83.734375 -86.140625 C 84.023438 -87.453125 84.460938 -89.085938 85.046875 -91.046875 C 85.628906 -93.003906 86.285156 -95.367188 87.015625 -98.140625 C 87.742188 -100.898438 88.285156 -102.96875 88.640625 -104.34375 C 89.003906 -105.726562 89.257812 -106.566406 89.40625 -106.859375 L 90.0625 -109.046875 L 109.6875 -109.046875 C 122.78125 -109.046875 129.328125 -108.828125 129.328125 -108.390625 C 129.328125 -107.953125 128.816406 -106.132812 127.796875 -102.9375 C 123.140625 -88.539062 118.265625 -73.054688 113.171875 -56.484375 C 108.085938 -39.910156 102.785156 -22.023438 97.265625 -2.828125 C 95.660156 2.546875 93.984375 8.175781 92.234375 14.0625 C 90.492188 19.945312 88.609375 25.65625 86.578125 31.1875 C 84.398438 37.289062 81.851562 42.304688 78.9375 46.234375 C 76.03125 50.160156 72.578125 53.25 68.578125 55.5 C 64.585938 57.75 60.046875 59.347656 54.953125 60.296875 C 49.867188 61.242188 44.128906 61.71875 37.734375 61.71875 L 22.25 61.71875 L 22.25 32.71875 L 24.640625 33.140625 C 25.367188 33.429688 26.203125 33.648438 27.140625 33.796875 C 28.085938 33.941406 29.070312 34.085938 30.09375 34.234375 C 37.65625 34.671875 42.742188 32.273438 45.359375 27.046875 L 50.8125 8.28125 L 45.359375 -8.0625 C 35.765625 -36.851562 28.492188 -58.953125 23.546875 -74.359375 C 18.609375 -89.773438 15.628906 -98.570312 14.609375 -100.75 C 13.160156 -104.09375 10.546875 -106.492188 6.765625 -107.953125 Z M 6.765625 -107.953125 "/></g></g><g style="fill:#0a0a0e;fill-opacity:1;"><g transform="translate(731.80319, 236.69227)"><path style="stroke:none" d="M 93.78125 -111 L 95.953125 -111 L 95.734375 -92.6875 L 95.734375 -70.21875 L 92.25 -70.4375 C 84.6875 -70.875 78.21875 -69.710938 72.84375 -66.953125 C 69.789062 -65.347656 67.0625 -62.507812 64.65625 -58.4375 C 62.257812 -54.375 60.625 -49.648438 59.75 -44.265625 C 59.3125 -42.085938 59.09375 -31.40625 59.09375 -12.21875 L 59.09375 16.578125 L 15.265625 16.578125 L 15.265625 -44.265625 C 15.265625 -64.765625 15.226562 -79.957031 15.15625 -89.84375 C 15.082031 -99.726562 14.898438 -104.816406 14.609375 -105.109375 C 13.878906 -106.710938 12.863281 -107.804688 11.5625 -108.390625 C 11.414062 -108.535156 11.488281 -108.679688 11.78125 -108.828125 C 12.5 -108.972656 14.785156 -109.046875 18.640625 -109.046875 C 22.492188 -109.046875 27.910156 -109.046875 34.890625 -109.046875 L 59.09375 -109.046875 L 59.09375 -87.671875 L 60.625 -90.71875 C 63.382812 -97.257812 67.851562 -102.273438 74.03125 -105.765625 C 80.21875 -109.253906 86.800781 -111 93.78125 -111 Z M 93.78125 -111 "/></g></g><g style="fill:#0a0a0e;fill-opacity:1;"><g transform="translate(830.808566, 236.69227)"><path style="stroke:none" d="M 71.96875 -111 C 78.070312 -111 83.992188 -110.5625 89.734375 -109.6875 C 95.484375 -108.820312 100.71875 -107.222656 105.4375 -104.890625 C 110.164062 -102.566406 114.3125 -99.367188 117.875 -95.296875 C 121.4375 -91.222656 124.160156 -85.988281 126.046875 -79.59375 L 127.140625 -76.328125 L 127.140625 16.578125 L 84.171875 16.578125 L 84.171875 -37.515625 L 72.1875 -37.296875 L 59.96875 -37.296875 L 57.578125 -36.203125 C 55.097656 -35.035156 53.5 -32.632812 52.78125 -29 C 51.613281 -23.476562 52.703125 -18.972656 56.046875 -15.484375 C 58.222656 -12.867188 62.078125 -11.5625 67.609375 -11.5625 C 69.640625 -11.5625 71.671875 -11.742188 73.703125 -12.109375 C 75.742188 -12.472656 77.632812 -13.085938 79.375 -13.953125 C 79.664062 -13.953125 79.8125 -13.804688 79.8125 -13.515625 C 79.957031 -12.941406 80.03125 -8.726562 80.03125 -0.875 L 80.03125 12.21875 L 77.859375 13.515625 C 74.078125 15.410156 70.003906 16.753906 65.640625 17.546875 C 61.273438 18.347656 56.988281 18.75 52.78125 18.75 C 50.300781 18.75 47.972656 18.640625 45.796875 18.421875 C 43.617188 18.203125 41.507812 17.804688 39.46875 17.234375 C 28.707031 14.316406 20.347656 8.640625 14.390625 0.203125 C 8.429688 -8.222656 5.671875 -18.101562 6.109375 -29.4375 C 6.984375 -47.90625 16.867188 -58.957031 35.765625 -62.59375 C 37.796875 -62.882812 46.445312 -63.171875 61.71875 -63.453125 L 84.171875 -63.671875 L 83.953125 -67.609375 C 83.671875 -73.128906 82.144531 -76.6875 79.375 -78.28125 C 76.613281 -79.882812 72.765625 -80.6875 67.828125 -80.6875 C 66.953125 -80.6875 65.75 -80.613281 64.21875 -80.46875 C 62.695312 -80.320312 61.132812 -80.066406 59.53125 -79.703125 C 57.9375 -79.335938 56.484375 -78.828125 55.171875 -78.171875 C 53.867188 -77.523438 53 -76.617188 52.5625 -75.453125 L 52.125 -74.359375 L 12.21875 -74.359375 C 12.21875 -75.234375 13.453125 -78.289062 15.921875 -83.53125 C 18.097656 -87.445312 20.75 -91.148438 23.875 -94.640625 C 27 -98.128906 30.019531 -100.894531 32.9375 -102.9375 C 38.894531 -106.71875 45.179688 -109.003906 51.796875 -109.796875 C 58.410156 -110.597656 65.132812 -111 71.96875 -111 Z M 71.96875 -111 "/></g></g><g style="fill:#0a0a0e;fill-opacity:1;"><g transform="translate(972.12021, 236.69227)"><path style="stroke:none" d=""/></g></g><g style="fill:#0a0a0e;fill-opacity:1;"><g transform="translate(1015.734887, 236.69227)"><path style="stroke:none" d="M 12.859375 -146.984375 C 12.722656 -146.984375 12.867188 -147.054688 13.296875 -147.203125 C 14.023438 -147.347656 16.242188 -147.421875 19.953125 -147.421875 C 23.660156 -147.421875 28.929688 -147.421875 35.765625 -147.421875 L 60.1875 -147.421875 L 60.1875 16.578125 L 15.921875 16.578125 L 15.921875 -143.71875 L 15.046875 -145.015625 C 14.171875 -145.890625 13.441406 -146.546875 12.859375 -146.984375 Z M 76.109375 -148.515625 C 77.566406 -148.660156 79.273438 -148.769531 81.234375 -148.84375 C 83.191406 -148.914062 85.484375 -148.878906 88.109375 -148.734375 C 94.210938 -148.441406 99.804688 -147.785156 104.890625 -146.765625 C 109.984375 -145.742188 114.707031 -144.144531 119.0625 -141.96875 C 123.425781 -139.789062 127.460938 -136.992188 131.171875 -133.578125 C 134.878906 -130.160156 138.476562 -125.832031 141.96875 -120.59375 C 148.507812 -110.5625 153.015625 -99.148438 155.484375 -86.359375 C 157.671875 -74.722656 158.253906 -63.457031 157.234375 -52.5625 C 156.210938 -42.238281 153.738281 -32.785156 149.8125 -24.203125 C 145.894531 -15.628906 140.734375 -8.210938 134.328125 -1.953125 C 127.929688 4.296875 120.410156 9.128906 111.765625 12.546875 C 103.117188 15.960938 93.488281 17.671875 82.875 17.671875 C 79.675781 17.671875 76.765625 17.488281 74.140625 17.125 C 71.523438 16.757812 69.054688 16.210938 66.734375 15.484375 C 66.148438 15.335938 65.859375 10.175781 65.859375 0 L 65.859375 -15.265625 L 72.84375 -15.265625 C 80.101562 -15.265625 86.207031 -16.351562 91.15625 -18.53125 C 96.101562 -20.71875 100.101562 -23.804688 103.15625 -27.796875 C 106.207031 -31.796875 108.421875 -36.628906 109.796875 -42.296875 C 111.179688 -47.972656 112.019531 -54.375 112.3125 -61.5 C 112.601562 -66.875 112.492188 -72.722656 111.984375 -79.046875 C 111.472656 -85.378906 110.273438 -91.085938 108.390625 -96.171875 C 107.078125 -99.953125 105.21875 -103.078125 102.8125 -105.546875 C 100.414062 -108.015625 97.726562 -110.015625 94.75 -111.546875 C 91.769531 -113.078125 88.570312 -114.203125 85.15625 -114.921875 C 81.738281 -115.648438 78.210938 -116.085938 74.578125 -116.234375 L 65.859375 -116.453125 L 65.859375 -146.546875 L 69.34375 -147.421875 C 71.96875 -148.148438 74.222656 -148.515625 76.109375 -148.515625 Z M 76.109375 -148.515625 "/></g></g><g style="fill:#0a0a0e;fill-opacity:1;"><g transform="translate(1183.433517, 236.69227)"><path style="stroke:none" d="M 73.921875 -110.34375 L 77.859375 -110.125 C 86.578125 -109.6875 94.390625 -107.867188 101.296875 -104.671875 C 108.203125 -101.472656 114.085938 -97.179688 118.953125 -91.796875 C 123.828125 -86.421875 127.609375 -80.171875 130.296875 -73.046875 C 132.992188 -65.929688 134.554688 -58.15625 134.984375 -49.71875 C 135.566406 -36.195312 133.171875 -23.910156 127.796875 -12.859375 C 120.234375 2.398438 107.800781 11.992188 90.5 15.921875 C 85.269531 17.367188 80.472656 18.09375 76.109375 18.09375 L 74.359375 18.09375 L 74.140625 11.5625 C 74.285156 9.226562 74.359375 6.863281 74.359375 4.46875 C 74.359375 2.070312 74.359375 -0.503906 74.359375 -3.265625 C 74.359375 -8.796875 74.503906 -11.5625 74.796875 -11.5625 C 77.128906 -11.5625 79.820312 -12.648438 82.875 -14.828125 C 88.394531 -18.023438 91.957031 -25.003906 93.5625 -35.765625 C 93.707031 -36.929688 93.8125 -38.421875 93.875 -40.234375 C 93.945312 -42.054688 93.914062 -44.203125 93.78125 -46.671875 C 93.632812 -49.285156 93.488281 -51.460938 93.34375 -53.203125 C 93.195312 -54.953125 92.976562 -56.410156 92.6875 -57.578125 C 91.8125 -62.953125 90.171875 -67.640625 87.765625 -71.640625 C 85.367188 -75.640625 81.191406 -78.144531 75.234375 -79.15625 L 73.921875 -79.375 Z M 60.625 -109.90625 C 61.351562 -110.050781 62.1875 -110.125 63.125 -110.125 C 64.070312 -110.125 65.128906 -110.195312 66.296875 -110.34375 L 69.125 -110.34375 L 69.125 -97.046875 C 69.125 -92.828125 69.125 -89.410156 69.125 -86.796875 C 69.125 -84.179688 69.050781 -82.363281 68.90625 -81.34375 L 68.90625 -79.375 L 66.515625 -78.71875 C 59.679688 -77.5625 55.03125 -73.203125 52.5625 -65.640625 C 51.394531 -62.296875 50.664062 -58.476562 50.375 -54.1875 C 50.082031 -49.90625 50.082031 -45.21875 50.375 -40.125 C 50.664062 -37.363281 51.03125 -34.566406 51.46875 -31.734375 C 51.90625 -28.898438 52.703125 -26.207031 53.859375 -23.65625 C 55.023438 -21.113281 56.550781 -18.929688 58.4375 -17.109375 C 60.332031 -15.296875 62.804688 -13.953125 65.859375 -13.078125 L 68.6875 -12.4375 L 68.90625 2.609375 L 68.90625 17.671875 L 64.765625 17.671875 C 53.140625 17.671875 42.597656 14.46875 33.140625 8.0625 C 19.617188 -1.09375 11.695312 -16.066406 9.375 -36.859375 C 7.34375 -53.722656 9.960938 -68.550781 17.234375 -81.34375 C 21.585938 -89.195312 27.617188 -95.664062 35.328125 -100.75 C 43.035156 -105.84375 51.46875 -108.894531 60.625 -109.90625 Z M 60.625 -109.90625 "/></g></g><g style="fill:#0a0a0e;fill-opacity:1;"><g transform="translate(1327.362089, 236.69227)"><path style="stroke:none" d="M 62.15625 -109.6875 C 63.164062 -109.832031 64.109375 -109.90625 64.984375 -109.90625 C 65.859375 -109.90625 66.660156 -109.976562 67.390625 -110.125 L 69.34375 -110.125 L 69.34375 -94.640625 L 69.125 -79.59375 L 67.171875 -79.375 C 63.972656 -78.507812 61.390625 -76.984375 59.421875 -74.796875 C 57.460938 -72.617188 55.9375 -70.179688 54.84375 -67.484375 C 53.757812 -64.796875 53.035156 -61.925781 52.671875 -58.875 C 52.304688 -55.820312 52.050781 -52.84375 51.90625 -49.9375 C 51.613281 -36.707031 52.703125 -27.113281 55.171875 -21.15625 C 56.191406 -18.539062 57.898438 -16.429688 60.296875 -14.828125 C 62.691406 -13.234375 65.347656 -12.4375 68.265625 -12.4375 L 69.34375 -12.4375 L 69.34375 17.453125 L 67.171875 17.453125 C 63.390625 17.453125 59.023438 16.832031 54.078125 15.59375 C 49.140625 14.351562 44.707031 12.9375 40.78125 11.34375 C 33.363281 8 27.472656 3.894531 23.109375 -0.96875 C 18.753906 -5.84375 15.335938 -12.132812 12.859375 -19.84375 C 9.953125 -28.570312 8.644531 -38.382812 8.9375 -49.28125 C 9.226562 -57.425781 10.679688 -64.914062 13.296875 -71.75 C 15.921875 -78.582031 19.519531 -84.613281 24.09375 -89.84375 C 28.675781 -95.082031 34.164062 -99.375 40.5625 -102.71875 C 46.957031 -106.0625 54.15625 -108.382812 62.15625 -109.6875 Z M 74.359375 -110.125 L 78.296875 -109.90625 C 85.128906 -109.46875 91.378906 -108.015625 97.046875 -105.546875 C 102.710938 -103.078125 107.65625 -99.769531 111.875 -95.625 C 116.09375 -91.476562 119.582031 -86.644531 122.34375 -81.125 C 125.101562 -75.601562 126.992188 -69.570312 128.015625 -63.03125 L 128.015625 -61.71875 L 86.578125 -61.71875 L 85.703125 -65.859375 C 84.972656 -70.515625 83.914062 -73.859375 82.53125 -75.890625 C 81.15625 -77.921875 79.085938 -79.082031 76.328125 -79.375 L 74.359375 -79.59375 Z M 85.265625 -27.046875 L 86.578125 -30.53125 L 127.359375 -30.53125 L 127.140625 -28.5625 C 126.554688 -22.894531 124.882812 -17.332031 122.125 -11.875 C 119.363281 -6.425781 116.019531 -1.597656 112.09375 2.609375 C 103.226562 11.484375 91.742188 16.359375 77.640625 17.234375 L 75.015625 17.234375 L 75.015625 -12.21875 L 76.546875 -13.296875 C 80.035156 -15.335938 82.941406 -19.921875 85.265625 -27.046875 Z M 85.265625 -27.046875 "/></g></g><g style="fill:#0a0a0e;fill-opacity:1;"><g transform="translate(1460.823151, 236.69227)"><path style="stroke:none" d="M 65.640625 -110.78125 C 72.617188 -110.78125 79.742188 -109.6875 87.015625 -107.5 C 94.285156 -105.320312 100.535156 -101.984375 105.765625 -97.484375 C 108.671875 -94.867188 111.285156 -91.304688 113.609375 -86.796875 C 115.941406 -82.285156 117.328125 -78.066406 117.765625 -74.140625 L 118.203125 -71.96875 L 77.203125 -71.96875 L 76.765625 -74.140625 C 76.179688 -77.484375 74.796875 -79.988281 72.609375 -81.65625 C 70.429688 -83.332031 67.816406 -84.171875 64.765625 -84.171875 C 61.128906 -84.171875 58.222656 -83.519531 56.046875 -82.21875 C 54.160156 -80.90625 52.925781 -79.335938 52.34375 -77.515625 C 51.757812 -75.703125 51.90625 -74 52.78125 -72.40625 C 53.5 -71.382812 54.441406 -70.507812 55.609375 -69.78125 C 56.773438 -69.050781 58.15625 -68.328125 59.75 -67.609375 C 62.945312 -66.296875 68.835938 -64.625 77.421875 -62.59375 C 80.765625 -61.863281 84.289062 -60.953125 88 -59.859375 C 91.707031 -58.773438 95.300781 -57.429688 98.78125 -55.828125 C 102.269531 -54.222656 105.503906 -52.257812 108.484375 -49.9375 C 111.472656 -47.613281 113.835938 -44.851562 115.578125 -41.65625 C 119.359375 -35.257812 120.8125 -27.914062 119.9375 -19.625 C 119.21875 -12.351562 117.148438 -6.28125 113.734375 -1.40625 C 110.316406 3.457031 106.0625 7.34375 100.96875 10.25 C 95.882812 13.15625 90.25 15.222656 84.0625 16.453125 C 77.882812 17.691406 71.597656 18.3125 65.203125 18.3125 C 58.660156 18.3125 52.046875 17.726562 45.359375 16.5625 C 38.671875 15.40625 32.5625 13.335938 27.03125 10.359375 C 21.507812 7.378906 16.894531 3.347656 13.1875 -1.734375 C 9.476562 -6.828125 7.265625 -13.300781 6.546875 -21.15625 L 6.328125 -23.546875 L 26.828125 -23.328125 L 47.109375 -23.328125 L 47.546875 -21.15625 C 47.835938 -18.96875 48.597656 -17.144531 49.828125 -15.6875 C 51.066406 -14.238281 52.519531 -13.003906 54.1875 -11.984375 C 55.863281 -10.972656 57.71875 -10.25 59.75 -9.8125 C 61.789062 -9.375 63.753906 -9.15625 65.640625 -9.15625 C 67.242188 -9.15625 69.023438 -9.335938 70.984375 -9.703125 C 72.941406 -10.066406 74.503906 -10.832031 75.671875 -12 C 77.128906 -13.300781 78.109375 -14.785156 78.609375 -16.453125 C 79.117188 -18.128906 79.015625 -19.695312 78.296875 -21.15625 C 77.710938 -22.3125 76.945312 -23.328125 76 -24.203125 C 75.050781 -25.078125 73.851562 -25.878906 72.40625 -26.609375 C 71.238281 -27.191406 68.945312 -27.988281 65.53125 -29 C 62.113281 -30.019531 57.644531 -31.332031 52.125 -32.9375 C 38.457031 -36.707031 28.859375 -40.484375 23.328125 -44.265625 C 18.679688 -47.316406 15.375 -51.097656 13.40625 -55.609375 C 11.445312 -60.117188 10.46875 -64.988281 10.46875 -70.21875 C 10.320312 -75.75 11.265625 -80.835938 13.296875 -85.484375 C 15.921875 -90.578125 19.117188 -94.757812 22.890625 -98.03125 C 26.671875 -101.300781 30.851562 -103.878906 35.4375 -105.765625 C 40.019531 -107.660156 44.890625 -108.96875 50.046875 -109.6875 C 55.210938 -110.414062 60.410156 -110.78125 65.640625 -110.78125 Z M 65.640625 -110.78125 "/></g></g></g></svg>